<svg id="Layer_1" data-name="Layer 1" xmlns="http://www.w3.org/2000/svg" viewBox="0 0 498 46.67"><title>jmwebmaster-logo</title><rect x="261.76" width="236.24" height="47.26"/><path d="M20.74,27a10.28,10.28,0,0,1-.64,3.69,7.74,7.74,0,0,1-1.87,2.86,8.37,8.37,0,0,1-3.06,1.84,12.68,12.68,0,0,1-4.24.65,13.91,13.91,0,0,1-3.43-.42,13.45,13.45,0,0,1-2.88-1.05V29.3a7.49,7.49,0,0,0,1.29.86,11.06,11.06,0,0,0,1.57.69,11.38,11.38,0,0,0,1.71.46,9.55,9.55,0,0,0,1.74.16,4.67,4.67,0,0,0,1.5-.26,3.57,3.57,0,0,0,1.4-.88,4.68,4.68,0,0,0,1-1.61,6.76,6.76,0,0,0,.4-2.47V11.31H4.86V6.85H20.74V27Z" style="fill:#e5512e"/><path d="M48.34,24.36a14.64,14.64,0,0,1-.72,4.71,10.48,10.48,0,0,1-2.09,3.67,9.32,9.32,0,0,1-3.32,2.37,11.08,11.08,0,0,1-4.44.85,11.63,11.63,0,0,1-4.25-.74,8.41,8.41,0,0,1-3.18-2.17,9.58,9.58,0,0,1-2-3.54,15.62,15.62,0,0,1-.69-4.86A14.42,14.42,0,0,1,28.37,20a10.52,10.52,0,0,1,2.09-3.65A9.37,9.37,0,0,1,33.77,14a11.08,11.08,0,0,1,4.44-.85,11.61,11.61,0,0,1,4.25.74A8.5,8.5,0,0,1,45.65,16a9.49,9.49,0,0,1,2,3.53A15.54,15.54,0,0,1,48.34,24.36Zm-3.91.18A12.63,12.63,0,0,0,44,21a7.19,7.19,0,0,0-1.28-2.55,5.35,5.35,0,0,0-2-1.54A6.7,6.7,0,0,0,38,16.36a6,6,0,0,0-2.94.67,5.8,5.8,0,0,0-2,1.79,7.65,7.65,0,0,0-1.14,2.6,13,13,0,0,0-.36,3.11A12.74,12.74,0,0,0,32,28.12a7.15,7.15,0,0,0,1.29,2.56,5.29,5.29,0,0,0,2,1.54,6.63,6.63,0,0,0,2.68.52,6,6,0,0,0,2.93-.67,5.81,5.81,0,0,0,2-1.79,7.67,7.67,0,0,0,1.14-2.6A13.09,13.09,0,0,0,44.43,24.54Z"/><path d="M54.78,13.5h3.49l0.11,4.07a14.14,14.14,0,0,1,3.86-3.41,7.83,7.83,0,0,1,3.84-1.05,6.24,6.24,0,0,1,5.19,2.22q1.77,2.22,1.64,6.59H69a7.21,7.21,0,0,0-.85-4.21,3,3,0,0,0-2.67-1.31,4.65,4.65,0,0,0-1.55.28,6.25,6.25,0,0,0-1.6.88,14.25,14.25,0,0,0-1.75,1.55,28.6,28.6,0,0,0-2,2.29V35.57H54.78V13.5Z"/><path d="M94.51,16.62a5.79,5.79,0,0,1,1,1.79,7,7,0,0,1,.34,2.21,7.65,7.65,0,0,1-.63,3.13,6.94,6.94,0,0,1-1.77,2.43,8.21,8.21,0,0,1-2.74,1.57,10.54,10.54,0,0,1-3.5.56,10.93,10.93,0,0,1-2.59-.3,6.69,6.69,0,0,1-1.91-.74,11.73,11.73,0,0,0-.7,1.16,2.63,2.63,0,0,0-.28,1.23,1.63,1.63,0,0,0,.8,1.38,3.93,3.93,0,0,0,2.12.59l5.8,0.22a13.12,13.12,0,0,1,3,.42,7.49,7.49,0,0,1,2.39,1.08,5.05,5.05,0,0,1,1.56,1.74A5,5,0,0,1,98,37.5a6.21,6.21,0,0,1-2.6,5.11A10.4,10.4,0,0,1,92,44.2a17.53,17.53,0,0,1-4.86.59,21,21,0,0,1-4.56-.43,10.06,10.06,0,0,1-3.09-1.19,4.81,4.81,0,0,1-1.76-1.8,4.86,4.86,0,0,1-.55-2.3,5.24,5.24,0,0,1,.75-2.81,8.44,8.44,0,0,1,2.31-2.33,3.61,3.61,0,0,1-1.67-1.53,4.07,4.07,0,0,1-.4-1,4.25,4.25,0,0,1-.13-1,5.24,5.24,0,0,1,.67-2.62,13.52,13.52,0,0,1,1.59-2.24,11.16,11.16,0,0,1-.74-1,6.19,6.19,0,0,1-.55-1,6.32,6.32,0,0,1-.35-1.21,8.27,8.27,0,0,1-.12-1.48,7.65,7.65,0,0,1,.63-3.13,7,7,0,0,1,1.76-2.43,8,8,0,0,1,2.72-1.57,11.31,11.31,0,0,1,5.09-.45A8.93,8.93,0,0,1,90,13.5h8v3.12H94.51ZM81.24,38.75A2.38,2.38,0,0,0,82.86,41a11.58,11.58,0,0,0,4.53.71,12.14,12.14,0,0,0,3.06-.33,6.22,6.22,0,0,0,2-.87,3.15,3.15,0,0,0,1.42-2.65,2.13,2.13,0,0,0-1.1-2,7.65,7.65,0,0,0-3.36-.75L83.65,35a8.26,8.26,0,0,0-1.2.94,4.08,4.08,0,0,0-.74.93,3.6,3.6,0,0,0-.38.94A4.21,4.21,0,0,0,81.24,38.75Zm1.16-18a5.16,5.16,0,0,0,.35,1.93,4.23,4.23,0,0,0,1,1.49,4.5,4.5,0,0,0,1.5,1,5.21,5.21,0,0,0,1.93.34,5,5,0,0,0,2-.39,4.27,4.27,0,0,0,1.49-1,4.54,4.54,0,0,0,.92-1.52,5,5,0,0,0,.32-1.78,5.16,5.16,0,0,0-.35-1.93,4.23,4.23,0,0,0-1-1.49,4.53,4.53,0,0,0-1.51-1A5.22,5.22,0,0,0,87.17,16a5,5,0,0,0-2,.4,4.5,4.5,0,0,0-1.49,1,4.41,4.41,0,0,0-.92,1.5A5,5,0,0,0,82.4,20.71Z"/><path d="M122,23.37c0,0.54,0,1,0,1.36s0,0.71-.07,1H106.42a6.87,6.87,0,0,0,1.89,5.2,7.57,7.57,0,0,0,5.45,1.81q1,0,1.93-.08t1.87-.21q0.9-.13,1.73-0.3t1.53-.36V35a26.43,26.43,0,0,1-3.53.71,29.42,29.42,0,0,1-4.08.28,13.86,13.86,0,0,1-4.88-.77A8.35,8.35,0,0,1,105,33,9.2,9.2,0,0,1,103,29.38a17,17,0,0,1-.62-4.8,14.31,14.31,0,0,1,.67-4.41,11.09,11.09,0,0,1,2-3.65,9.27,9.27,0,0,1,7.4-3.42,10.77,10.77,0,0,1,4.09.73,8.19,8.19,0,0,1,3,2.06,8.72,8.72,0,0,1,1.85,3.23A13.51,13.51,0,0,1,122,23.37Zm-4-.55a8.34,8.34,0,0,0-.29-2.69,5.7,5.7,0,0,0-1.09-2.1,5.09,5.09,0,0,0-1.83-1.37,6.18,6.18,0,0,0-2.55-.49,5.32,5.32,0,0,0-2.29.48A5.22,5.22,0,0,0,108.2,18,7,7,0,0,0,107,20.12a9.73,9.73,0,0,0-.57,2.7H118Z"/><path d="M149.58,35.57l-0.53-16.24-0.2-6.48-1.39,4.4L144.29,27H140.9L138,17.24l-1.21-4.4-0.16,6.35-0.48,16.37h-4.59L133,6.85h6.11L141.63,15l1.21,4.59L144,15.26l2.66-8.42h6.22l1.43,28.72h-4.77Z" style="fill:#e5512e"/><path d="M180.49,23.37c0,0.54,0,1,0,1.36s0,0.71-.07,1H164.91A6.87,6.87,0,0,0,166.8,31a7.57,7.57,0,0,0,5.45,1.81q1,0,1.93-.08t1.87-.21q0.9-.13,1.73-0.3t1.53-.36V35a26.43,26.43,0,0,1-3.53.71,29.42,29.42,0,0,1-4.08.28,13.86,13.86,0,0,1-4.88-.77A8.35,8.35,0,0,1,163.47,33a9.2,9.2,0,0,1-1.93-3.58,17,17,0,0,1-.62-4.8,14.31,14.31,0,0,1,.67-4.41,11.09,11.09,0,0,1,2-3.65,9.27,9.27,0,0,1,7.4-3.42,10.77,10.77,0,0,1,4.09.73,8.19,8.19,0,0,1,3,2.06,8.72,8.72,0,0,1,1.85,3.23A13.51,13.51,0,0,1,180.49,23.37Zm-4-.55a8.34,8.34,0,0,0-.29-2.69,5.7,5.7,0,0,0-1.09-2.1,5.09,5.09,0,0,0-1.83-1.37,6.18,6.18,0,0,0-2.55-.49,5.32,5.32,0,0,0-2.29.48A5.22,5.22,0,0,0,166.69,18a7,7,0,0,0-1.21,2.11,9.73,9.73,0,0,0-.57,2.7h11.6Z"/><path d="M201.54,13.5V35.17a11.83,11.83,0,0,1-.66,4.1,8.23,8.23,0,0,1-1.89,3,8,8,0,0,1-3,1.87,12,12,0,0,1-4,.64,17,17,0,0,1-3.18-.3,14.06,14.06,0,0,1-2.8-.82V40a12.8,12.8,0,0,0,1.46.64,14.53,14.53,0,0,0,1.61.48,14,14,0,0,0,1.66.3,13.52,13.52,0,0,0,1.63.1A5,5,0,0,0,196.25,40a6.74,6.74,0,0,0,1.43-4.66V16.67H186.86V13.5h14.68Zm-2.31-9.25a3.06,3.06,0,0,1,1.19.23,2.91,2.91,0,0,1,1,.65,3.08,3.08,0,0,1,.64,1,3,3,0,0,1,.23,1.16A2.92,2.92,0,0,1,202,8.44a3.1,3.1,0,0,1-.64,1,2.91,2.91,0,0,1-1,.65A3.18,3.18,0,0,1,198,10a2.92,2.92,0,0,1-1-.65,3.1,3.1,0,0,1-.64-1,2.92,2.92,0,0,1-.23-1.17,3,3,0,0,1,.23-1.16,3.08,3.08,0,0,1,.64-1,2.92,2.92,0,0,1,1-.65A3.06,3.06,0,0,1,199.24,4.25Z"/><path d="M218.86,16.67h-6.53V13.5h10.39V32.38h6.57v3.19H211.61V32.38h7.25V16.67ZM220.2,4.25a3.06,3.06,0,0,1,1.19.23,2.91,2.91,0,0,1,1,.65,3.12,3.12,0,0,1,.64,1,3.07,3.07,0,0,1,0,2.34,3.08,3.08,0,0,1-.64,1,2.91,2.91,0,0,1-1,.65A3.18,3.18,0,0,1,219,10a2.92,2.92,0,0,1-1-.65,3.08,3.08,0,0,1-.64-1,3.07,3.07,0,0,1,0-2.34,3.12,3.12,0,0,1,.64-1,2.92,2.92,0,0,1,1-.65A3.06,3.06,0,0,1,220.2,4.25Z"/><path d="M250.26,35.57l-0.09-3a12,12,0,0,1-3.66,2.57,9.85,9.85,0,0,1-3.9.79,9.57,9.57,0,0,1-3.23-.48,6,6,0,0,1-2.21-1.33,5.17,5.17,0,0,1-1.27-2,7.39,7.39,0,0,1-.4-2.48,6.17,6.17,0,0,1,2.47-5.2q2.47-1.88,7.31-1.88h4.57V20.67a4.09,4.09,0,0,0-1.25-3.13,5.43,5.43,0,0,0-3.82-1.17,16.38,16.38,0,0,0-3.68.42A25.91,25.91,0,0,0,237.34,18V14.51c0.48-.18,1-0.35,1.61-0.52s1.22-.32,1.88-0.45,1.35-.24,2.07-0.32a19.87,19.87,0,0,1,2.18-.12,13.64,13.64,0,0,1,3.6.44,7.32,7.32,0,0,1,2.71,1.34,5.91,5.91,0,0,1,1.7,2.26,8,8,0,0,1,.59,3.21V35.57h-3.43Zm-0.42-10H245a9.31,9.31,0,0,0-2.46.29,4.68,4.68,0,0,0-1.69.81,3.28,3.28,0,0,0-1,1.26,4.16,4.16,0,0,0-.32,1.66,3.75,3.75,0,0,0,.2,1.22,2.71,2.71,0,0,0,.64,1,3.07,3.07,0,0,0,1.14.71,4.9,4.9,0,0,0,1.71.26,7.25,7.25,0,0,0,3-.8,14.79,14.79,0,0,0,3.59-2.54V25.52Z"/><path d="M291.95,37.57H285.6l-2.84-8.86-1-3.6-1,3.69-2.79,8.77h-6.09l-1.6-28.72H275l0.68,18.42,0.18,5,1.3-4.48,3.16-10.22h3.41l3.34,10.83,1.08,3.82,0.09-4.48L289,8.85h4.59Z" style="fill:#fff"/><path d="M298.32,37.57V8.85h17.29v4.57h-11.8v7.14h11.25V25H303.81v8h11.8v4.57H298.32Z" style="fill:#fff"/><path d="M321.86,37.57V8.85h9.27q4.9,0,7.35,1.71a5.9,5.9,0,0,1,2.45,5.19,8.65,8.65,0,0,1-.25,2.1,6.54,6.54,0,0,1-.78,1.88,6.18,6.18,0,0,1-1.32,1.52,5.94,5.94,0,0,1-1.87,1,6.75,6.75,0,0,1,2.05.69,6.08,6.08,0,0,1,2.88,3.29,6.94,6.94,0,0,1,.43,2.51,7.73,7.73,0,0,1-2.95,6.6q-2.94,2.21-8.5,2.21h-8.77ZM335.3,16.69a3.93,3.93,0,0,0-.26-1.47,2.7,2.7,0,0,0-.85-1.12,4.22,4.22,0,0,0-1.49-.71,8.44,8.44,0,0,0-2.21-.25h-3.27v7.6h3.27a6.76,6.76,0,0,0,2.23-.32,4,4,0,0,0,1.49-.88,3.21,3.21,0,0,0,.84-1.28A4.67,4.67,0,0,0,335.3,16.69ZM331,33.15a7.14,7.14,0,0,0,2.27-.33,4.71,4.71,0,0,0,1.63-.91,3.87,3.87,0,0,0,1-1.37,4.26,4.26,0,0,0,.34-1.69,3.46,3.46,0,0,0-1.39-2.92,7.08,7.08,0,0,0-4.27-1.05h-3.36v8.28H331Z" style="fill:#fff"/><path d="M362.75,37.57l-0.53-16.24L362,14.84l-1.38,4.4L357.45,29h-3.38l-2.88-9.78L350,14.84l-0.15,6.35-0.48,16.37h-4.59l1.41-28.72h6.11L354.8,17,356,21.59l1.21-4.33,2.66-8.42h6.22l1.43,28.72h-4.77Z" style="fill:#fff"/><path d="M387.19,37.57L385.6,31.9h-10L374,37.57H368.6l8.5-28.72h7.56l8.51,28.72h-6Zm-6.53-23.45-3.78,13.36h7.51Z" style="fill:#fff"/><path d="M415.67,28.89A9.06,9.06,0,0,1,414.8,33a7.8,7.8,0,0,1-2.43,2.87,10.79,10.79,0,0,1-3.71,1.68,19,19,0,0,1-4.71.55,35.22,35.22,0,0,1-4.37-.26,25.82,25.82,0,0,1-4.18-.88V31.59q1,0.35,2.11.66t2.21,0.54q1.11,0.23,2.21.36a17.92,17.92,0,0,0,2.13.13,11.14,11.14,0,0,0,2.61-.26,5.43,5.43,0,0,0,1.76-.73,2.81,2.81,0,0,0,1-1.1,3.19,3.19,0,0,0,.31-1.41,2.66,2.66,0,0,0-.6-1.77,5.7,5.7,0,0,0-1.59-1.26,14.29,14.29,0,0,0-2.25-1c-0.84-.29-1.7-0.61-2.57-0.94s-1.73-.72-2.57-1.14a9.39,9.39,0,0,1-2.25-1.58,7.34,7.34,0,0,1-1.59-2.25,7.44,7.44,0,0,1-.61-3.15,8.45,8.45,0,0,1,.62-3.21,6.88,6.88,0,0,1,1.93-2.65A9.79,9.79,0,0,1,401.63,9a16.3,16.3,0,0,1,5-.67q0.86,0,1.79.08t1.85,0.2c0.61,0.08,1.2.18,1.76,0.29s1.08,0.22,1.55.34v4.94a16,16,0,0,0-1.54-.48q-0.84-.22-1.73-0.39t-1.79-.25Q407.6,13,406.79,13a10.73,10.73,0,0,0-2.42.23,5.23,5.23,0,0,0-1.63.64,2.46,2.46,0,0,0-.92,1,3,3,0,0,0-.28,1.32,2.18,2.18,0,0,0,.6,1.55,5.78,5.78,0,0,0,1.6,1.17,18.46,18.46,0,0,0,2.26,1q1.26,0.45,2.59,1A26.08,26.08,0,0,1,411.2,22a10,10,0,0,1,2.26,1.6,7.31,7.31,0,0,1,1.61,2.23A7.11,7.11,0,0,1,415.67,28.89Z" style="fill:#fff"/><path d="M433.14,13.35V37.57H427.6V13.35h-7.87V8.85H441v4.5h-7.86Z" style="fill:#fff"/><path d="M446.78,37.57V8.85h17.29v4.57h-11.8v7.14h11.25V25H452.28v8h11.8v4.57H446.78Z" style="fill:#fff"/><path d="M484.8,37.57l-4-9.23a4.38,4.38,0,0,0-1.59-2,4.29,4.29,0,0,0-2.41-.67h-1V37.57h-5.4V8.85h8.37a21.1,21.1,0,0,1,4.31.41,9,9,0,0,1,3.3,1.35,6.27,6.27,0,0,1,2.1,2.46,8.43,8.43,0,0,1,.74,3.71,8,8,0,0,1-.46,2.81,6.34,6.34,0,0,1-1.3,2.12,6.65,6.65,0,0,1-2,1.44,9.26,9.26,0,0,1-2.52.77,3.6,3.6,0,0,1,1.93,1.2,12,12,0,0,1,1.76,2.82l4.59,9.63H484.8Zm-1.34-20.26a3.42,3.42,0,0,0-1.34-3,7.13,7.13,0,0,0-4-.92h-2.37v8.11h2.2a9.11,9.11,0,0,0,2.28-.26,5.12,5.12,0,0,0,1.75-.79,3.62,3.62,0,0,0,1.12-1.31A3.9,3.9,0,0,0,483.46,17.31Z" style="fill:#fff"/></svg>